P3
10 16
255 
0 0 0
255 255 255
0 0 0
255 255 255
0 0 0
255 255 255
0 0 0
255 255 255
0 0 0
255 255 255
0 0 0
255 255 255
0 0 0
255 255 255
0 0 0
255 255 255
0 0 0
255 255 255
0 0 0
255 255 255
0 0 0
255 255 255
0 0 0
255 255 255
0 0 0
255 255 255
0 0 0
255 255 255
0 0 0
255 255 255
0 0 0
255 255 255
0 0 0
255 255 255
0 0 0
255 255 255
0 0 0
255 255 255
0 0 0
255 255 255
0 0 0
255 255 255
0 0 0
255 255 255
0 0 0
255 255 255
0 0 0
255 255 255
0 0 0
255 255 255
0 0 0
255 255 255
0 0 0
255 255 255
0 0 0
255 255 255
0 0 0
255 255 255
0 0 0
255 255 255
0 0 0
255 255 255
0 0 0
255 255 255
0 0 0
255 255 255
0 0 0
255 255 255
0 0 0
255 255 255
0 0 0
255 255 255
0 0 0
255 255 255
0 0 0
255 255 255
0 0 0
255 255 255
0 0 0
255 255 255
0 0 0
255 255 255
0 0 0
255 255 255
0 0 0
255 255 255
0 0 0
255 255 255
0 0 0
255 255 255
0 0 0
255 255 255
0 0 0
255 255 255
0 0 0
255 255 255
0 0 0
255 255 255
0 0 0
255 255 255
0 0 0
255 255 255
0 0 0
255 255 255
0 0 0
255 255 255
0 0 0
255 255 255
0 0 0
255 255 255
0 0 0
255 255 255
0 0 0
255 255 255
0 0 0
255 255 255
0 0 0
255 255 255
0 0 0
255 255 255
0 0 0
255 255 255
0 0 0
255 255 255
0 0 0
255 255 255
0 0 0
255 255 255
0 0 0
255 255 255
0 0 0
255 255 255
0 0 0
255 255 255
0 0 0
255 255 255
0 0 0
255 255 255
0 0 0
255 255 255
0 0 0
255 255 255
0 0 0
255 255 255
0 0 0
255 255 255
0 0 0
255 255 255
0 0 0
255 255 255
0 0 0
255 255 255
0 0 0
255 255 255
0 0 0
255 255 255
0 0 0
255 255 255
0 0 0
255 255 255
